<svg width="202" height="56" viewBox="0 0 202 56" fill="none" xmlns="http://www.w3.org/2000/svg">
<g clip-path="url(#clip0_823_2202)">
<path d="M22.4259 0L0 8.20461L4.24513 9.95898V12.3424C4.04105 12.3866 3.85462 12.4902 3.70929 12.6402C3.61983 12.7309 3.55099 12.8398 3.50744 12.9596C3.4639 13.0793 3.44669 13.207 3.45697 13.334C3.46726 13.461 3.5048 13.5843 3.56705 13.6955C3.6293 13.8066 3.71478 13.9031 3.81768 13.9782C3.86098 14.011 3.90669 14.0404 3.95442 14.0663L2.9962 18.2841L4.82553 19.9382L6.71866 18.2547L5.24183 13.9215C5.25804 13.9053 5.2783 13.8941 5.29451 13.8769C5.38344 13.7862 5.45184 13.6775 5.49507 13.5581C5.5383 13.4386 5.55535 13.3113 5.54508 13.1847C5.5348 13.0581 5.49743 12.9352 5.4355 12.8243C5.37357 12.7134 5.28852 12.6171 5.18612 12.5419C5.06031 12.446 4.91515 12.3786 4.7607 12.3444V10.1717L10.8726 12.6959L11.215 14.0127C11.215 14.0127 21.3988 7.04482 33.4262 14.1281L33.5528 12.6614L44.6797 8.51557L22.4259 0Z" fill="#5A189A"/>
<path d="M28.2218 26.2989L20.157 21.6446C19.9918 21.55 19.8045 21.5005 19.6141 21.501C19.4237 21.5015 19.2368 21.552 19.072 21.6475C18.9073 21.743 18.7706 21.8801 18.6755 22.0451C18.5804 22.2101 18.5303 22.3972 18.5303 22.5876V31.8963C18.531 32.0863 18.5816 32.2729 18.677 32.4373C18.7724 32.6017 18.9092 32.7382 19.0738 32.8333C19.2384 32.9283 19.4251 32.9785 19.6151 32.9788C19.8052 32.9792 19.9921 32.9297 20.157 32.8352L28.2188 28.1758C28.3829 28.0803 28.5191 27.9435 28.6139 27.779C28.7086 27.6145 28.7587 27.4281 28.759 27.2382C28.7593 27.0484 28.7098 26.8618 28.6156 26.697C28.5214 26.5322 28.3856 26.3949 28.2218 26.2989Z" fill="#5A189A"/>
<path d="M29.3423 48.5978L17.1212 44.385C16.5717 44.1956 15.9727 44.4875 15.7832 45.037L15.6585 45.3989C15.469 45.9484 15.7609 46.5475 16.3104 46.7369L28.5315 50.9497C29.081 51.1391 29.68 50.8472 29.8695 50.2977L29.9942 49.9357C30.1837 49.3862 29.8918 48.7872 29.3423 48.5978Z" fill="#5A189A"/>
<path d="M26.9675 51.2631L17.8357 48.1152C17.3507 47.948 16.822 48.2057 16.6548 48.6906L16.4495 49.2863C16.2823 49.7712 16.5399 50.2999 17.0249 50.4671L26.1567 53.615C26.6417 53.7822 27.1704 53.5246 27.3376 53.0396L27.5429 52.4439C27.7101 51.959 27.4524 51.4303 26.9675 51.2631Z" fill="#5A189A"/>
<path d="M24.2855 53.9105L19.1671 52.1461C18.8016 52.0201 18.4032 52.2142 18.2773 52.5797L18.0261 53.3084C17.9001 53.6739 18.0942 54.0723 18.4597 54.1982L23.5781 55.9627C23.9436 56.0886 24.3419 55.8945 24.4679 55.5291L24.7191 54.8003C24.8451 54.4349 24.651 54.0365 24.2855 53.9105Z" fill="#5A189A"/>
<path d="M34.2973 17.2191C30.9547 13.7478 25.9914 11.9621 21.1902 12.3632C16.9461 12.7218 12.8215 14.7881 10.1849 18.1307C8.95288 19.7127 8.05928 21.531 7.55954 23.4729C7.0598 25.4147 6.96459 27.4385 7.27982 29.4186C7.83489 32.7785 9.65004 35.8486 12.1418 38.1398C14.3915 40.2072 17.1345 41.2556 19.8663 42.4954L26.4502 45.4733L30.0471 47.1001C30.5748 47.3391 31.1714 47.1568 31.3811 46.6949C31.5908 46.233 31.3325 45.6638 30.8058 45.4247L25.336 42.9482C22.3216 41.5838 19.2028 40.3723 16.2634 38.855C14.0228 37.6982 12.0091 35.7605 10.7268 33.5807C9.81178 32.0471 9.23119 30.3374 9.02304 28.5637C8.57331 24.5374 10.1707 20.3348 13.1821 17.6243C15.6009 15.4465 18.8412 14.2482 22.0957 14.151C26.1119 14.0304 30.1788 15.6065 32.9663 18.4994C35.7539 21.3923 37.1821 25.5817 36.6047 29.5584C36.0273 33.5351 33.409 37.1918 29.7716 38.8955C29.3441 39.0981 28.8873 39.2834 28.5885 39.6491C28.0081 40.3632 28.4872 41.0581 29.2773 41.0895C29.957 41.1158 30.7308 40.6012 31.2808 40.2639C32.5385 39.5008 33.6894 38.5744 34.7035 37.5088C36.5268 35.5621 37.7723 33.1463 38.3003 30.5318C39.2271 25.8076 37.6348 20.6944 34.2973 17.2191Z" fill="#5A189A"/>
<path d="M59.5422 15.9366V28.8685H57.8294L57.8203 19.0179L52.6037 28.8685L50.3227 18.9713L47.1401 28.8685H45.4343L49.6987 15.9346H51.1806L53.2003 24.6973L57.8375 15.9366H59.5422Z" fill="#9D4EDD"/>
<path d="M68.2259 26.6487L67.9949 28.1842C67.1774 28.8047 66.179 29.1398 65.1527 29.1384C64.079 29.1384 63.2167 28.7636 62.5657 28.0141C61.9147 27.2645 61.5879 26.2661 61.5852 25.0189C61.5852 23.6305 61.9759 22.4623 62.7571 21.5142C63.5384 20.5661 64.4933 20.0934 65.6217 20.0961C66.0329 20.089 66.4405 20.1747 66.8141 20.3469C67.1876 20.5192 67.5175 20.7734 67.7792 21.0908C68.3525 21.7553 68.6395 22.6115 68.6402 23.6595C68.6394 23.9259 68.6208 24.1919 68.5844 24.4557H63.2737C63.2251 24.7248 63.2003 24.9976 63.1998 25.2711C63.1998 26.0544 63.4142 26.673 63.843 27.1268C64.0483 27.3484 64.2985 27.5237 64.5769 27.6411C64.8553 27.7584 65.1555 27.8151 65.4576 27.8074C66.2476 27.8061 67.1704 27.4198 68.2259 26.6487ZM63.5209 23.3334H67.0874C67.0874 22.7418 66.9523 22.2742 66.6822 21.9305C66.4121 21.5868 66.0339 21.4156 65.5477 21.417C64.6226 21.417 63.947 22.0558 63.5209 23.3334Z" fill="#9D4EDD"/>
<path d="M76.5298 26.6487L76.2988 28.1842C75.4813 28.8047 74.4829 29.1398 73.4566 29.1384C72.3829 29.1384 71.5206 28.7636 70.8696 28.0141C70.2186 27.2645 69.8925 26.2661 69.8911 25.0189C69.8911 23.6305 70.2818 22.4623 71.0631 21.5142C71.8444 20.5661 72.7992 20.0934 73.9276 20.0961C74.3388 20.089 74.7464 20.1747 75.12 20.3469C75.4935 20.5192 75.8234 20.7734 76.0851 21.0908C76.6584 21.7553 76.9454 22.6115 76.9461 23.6595C76.9454 23.9259 76.9265 24.1919 76.8893 24.4557H71.5776C71.529 24.7248 71.5042 24.9976 71.5037 25.2711C71.5037 26.0544 71.7181 26.673 72.1469 27.1268C72.3522 27.3484 72.6024 27.5237 72.8808 27.6411C73.1592 27.7584 73.4594 27.8151 73.7615 27.8074C74.5515 27.8061 75.4743 27.4198 76.5298 26.6487ZM71.8248 23.3334H75.3912C75.3912 22.7418 75.2562 22.2742 74.9861 21.9305C74.716 21.5868 74.3378 21.4156 73.8516 21.417C72.9265 21.417 72.2509 22.0558 71.8248 23.3334Z" fill="#9D4EDD"/>
<path d="M82.8807 20.3523L82.7064 21.6113H81.0118L80.1843 26.2707C80.145 26.4663 80.1233 26.6649 80.1195 26.8643C80.1195 27.4194 80.4189 27.6973 81.0179 27.6979C81.4636 27.6979 81.9829 27.5291 82.5758 27.1915L82.4836 28.7655C81.9259 29.0104 81.3242 29.1393 80.715 29.1444C80.0175 29.1444 79.4668 28.9668 79.063 28.6116C78.8634 28.4382 78.7052 28.2222 78.6 27.9796C78.4948 27.737 78.4454 27.4739 78.4552 27.2097C78.4555 27.0633 78.4691 26.9171 78.4958 26.7731L79.3891 21.6174H77.8931L78.0875 20.3584H79.6454L79.9564 18.6182H81.5467L81.2357 20.3523H82.8807Z" fill="#9D4EDD"/>
<path d="M86.0349 20.3527L84.8417 28.8683H83.2332L84.4274 20.3507L86.0349 20.3527ZM84.6026 17.6867C84.6008 17.5638 84.6241 17.4418 84.6711 17.3282C84.7181 17.2147 84.7879 17.1119 84.8761 17.0263C84.961 16.9392 85.0626 16.8699 85.1747 16.8226C85.2868 16.7753 85.4072 16.751 85.5289 16.751C85.6506 16.751 85.7711 16.7753 85.8832 16.8226C85.9953 16.8699 86.0968 16.9392 86.1818 17.0263C86.27 17.1118 86.3398 17.2146 86.3866 17.3282C86.4335 17.4418 86.4565 17.5638 86.4542 17.6867C86.4542 17.9323 86.3567 18.1677 86.1831 18.3414C86.0094 18.515 85.774 18.6125 85.5284 18.6125C85.2829 18.6125 85.0474 18.515 84.8738 18.3414C84.7002 18.1677 84.6026 17.9323 84.6026 17.6867Z" fill="#9D4EDD"/>
<path d="M89.7381 20.3523L89.5224 21.8595L89.5649 21.8899C90.4725 20.7784 91.4138 20.223 92.3889 20.2236C93.048 20.2236 93.5602 20.4661 93.9255 20.9509C94.2908 21.4358 94.4728 22.06 94.4715 22.8238C94.4703 23.0508 94.4517 23.2773 94.4158 23.5014L93.5994 28.8699H92.0091L92.7829 23.4447C92.8124 23.2707 92.8277 23.0945 92.8285 22.918C92.8285 22.4737 92.7357 22.136 92.55 21.9051C92.4706 21.7949 92.366 21.7053 92.245 21.6438C92.1239 21.5823 91.9899 21.5507 91.8541 21.5516C91.6672 21.5577 91.4831 21.5986 91.3112 21.6721C91.082 21.7692 90.8653 21.8937 90.6659 22.0428C90.3641 22.2734 90.0803 22.5267 89.8171 22.8005C89.4798 23.1408 89.3046 23.3566 89.2914 23.4498L88.5155 28.8678H86.9263L88.1235 20.3523H89.7381Z" fill="#9D4EDD"/>
<path d="M103.692 20.3527L103.525 21.6118H101.877C102.239 22.0994 102.437 22.6897 102.442 23.2973C102.455 23.9265 102.296 24.5473 101.983 25.0932C101.679 25.6131 101.306 25.9791 100.864 26.1912C100.319 26.4339 99.7452 26.6041 99.1563 26.6976C98.4587 26.8246 98.0174 26.9509 97.8324 27.0765C97.6474 27.2021 97.5549 27.352 97.5549 27.5262C97.5549 27.6548 97.6349 27.7734 97.7949 27.8827C97.955 27.9921 98.5344 28.1643 99.5311 28.4054C100.528 28.6465 101.225 28.9686 101.623 29.3717C101.814 29.5574 101.965 29.7799 102.068 30.0257C102.171 30.2715 102.222 30.5356 102.22 30.802C102.22 31.4948 101.893 32.0722 101.239 32.5341C100.585 32.9959 99.7543 33.2272 98.7481 33.2279C97.6677 33.2279 96.7807 33.0182 96.0872 32.5989C95.3937 32.1795 95.0466 31.6548 95.0459 31.0248C95.0459 30.2043 95.8633 29.6182 97.4982 29.2664C96.5116 28.9028 96.0173 28.4014 96.0173 27.7673C96.0173 27.4391 96.1692 27.1332 96.4711 26.8465C96.822 26.5318 97.2444 26.3075 97.7018 26.1932C96.678 25.7057 96.1658 24.8906 96.1652 23.748C96.1652 22.7925 96.4755 21.9876 97.096 21.3332C97.3778 21.0205 97.7228 20.7712 98.1082 20.6018C98.4936 20.4324 98.9106 20.3468 99.3315 20.3507L103.692 20.3527ZM98.8788 32.0175C99.4268 32.0175 99.8653 31.9162 100.196 31.7227C100.526 31.5292 100.687 31.2679 100.687 30.9529C100.687 30.6379 100.418 30.3664 99.8765 30.1152C99.3346 29.864 98.976 29.7404 98.7846 29.7404C98.5435 29.7404 98.116 29.8687 97.5022 30.1253C96.8874 30.3806 96.5815 30.6693 96.5815 30.9904C96.5815 31.3115 96.7841 31.5556 97.1963 31.7399C97.6086 31.9243 98.1687 32.0175 98.8788 32.0175ZM99.2394 25.3616C99.4722 25.3651 99.7026 25.3128 99.911 25.209C100.12 25.1052 100.3 24.9529 100.438 24.765C100.749 24.368 100.914 23.8758 100.906 23.3712C100.906 22.8719 100.762 22.4596 100.475 22.1456C100.34 21.9912 100.172 21.8684 99.9843 21.7858C99.7963 21.7032 99.5925 21.6628 99.3872 21.6675C98.9547 21.6675 98.5658 21.8701 98.2214 22.2692C97.8844 22.6459 97.6992 23.1342 97.7018 23.6396C97.6846 24.0921 97.8407 24.5341 98.1383 24.8754C98.2746 25.0327 98.4439 25.1579 98.6343 25.242C98.8247 25.3261 99.0313 25.3669 99.2394 25.3616Z" fill="#9D4EDD"/>
<path d="M48.7425 52.7352L48.3586 50.6607C48.2675 50.1711 48.128 49.4868 47.9403 48.6075L46.0998 40.1811L45.4343 37.3389C46.3797 37.3537 47.1475 37.3615 47.7377 37.3622C48.3988 37.3622 49.1662 37.3544 50.04 37.3389C50.2426 38.5645 50.4044 39.4629 50.5252 40.0342L51.4743 44.5812C51.6702 45.5577 51.8883 46.7495 52.1287 48.1568L52.5004 46.5777L53.8395 41.3662L54.7623 37.3389C55.7934 37.3537 56.6659 37.3615 57.3796 37.3622C58.1542 37.3622 59.0226 37.3544 59.9848 37.3389L60.6939 42.0874L61.6865 48.1335L62.1262 46.4754C62.2092 46.1907 62.2963 45.901 62.3855 45.6073C62.4746 45.3135 62.664 44.7311 62.9496 43.859L64.3201 39.5268L64.9623 37.3389C65.8719 37.347 66.6235 37.3507 67.2171 37.35C67.8856 37.35 68.6334 37.3463 69.4607 37.3389L65.0869 50.4429L64.388 52.7311C63.2596 52.7169 62.2744 52.7098 61.4323 52.7098C60.545 52.7098 59.5635 52.7169 58.4878 52.7311L58.2295 51.1854L57.2378 45.8058C57.1852 45.4827 57.1365 45.1505 57.097 44.8071C57.0575 44.4637 56.9957 43.934 56.9228 43.2128L56.5278 44.9611C56.4265 45.351 56.3252 45.7471 56.2239 46.1441L54.4067 52.7281C53.2702 52.7139 52.3248 52.7068 51.5706 52.7068C50.7758 52.7115 49.8331 52.721 48.7425 52.7352Z" fill="#5A189A"/>
<path d="M70.6001 52.7349C70.7041 51.8192 70.7821 51.0636 70.8341 50.468C70.8861 49.8724 70.9367 49.1127 70.986 48.1889C71.036 47.2652 71.0792 46.2425 71.1157 45.1208C71.1521 43.9992 71.1818 42.6986 71.2048 41.2191C72.1833 41.2339 72.9663 41.2417 73.5538 41.2424C74.0872 41.2424 74.8547 41.2346 75.8561 41.2191C75.7265 42.6372 75.6333 43.8864 75.5765 44.9669C75.5198 46.0473 75.4837 47.1865 75.4682 48.3844C75.4378 50.5197 75.4226 51.9715 75.4226 52.74C74.5292 52.7258 73.759 52.7187 73.1121 52.7187C72.4652 52.7187 71.6279 52.7241 70.6001 52.7349ZM71.3091 39.7757C71.3537 38.8816 71.376 38.1746 71.376 37.6546C71.376 37.5034 71.3726 37.3008 71.3659 37.0469C72.2755 37.0611 73.0385 37.0685 73.655 37.0692C74.5045 37.0692 75.249 37.0617 75.8885 37.0469C75.8662 37.2785 75.851 37.474 75.8429 37.6334L75.7761 39.0322C75.7609 39.2429 75.7538 39.49 75.7538 39.7767C75.011 39.7618 74.2962 39.7541 73.6095 39.7534C72.9045 39.7527 72.1377 39.7601 71.3091 39.7757Z" fill="#5A189A"/>
<path d="M86.267 49.42C86.1319 50.0514 86.0158 50.6679 85.9185 51.2696L85.6704 52.6452C85.0953 52.7811 84.5134 52.8866 83.9271 52.9612C83.5235 53.0064 83.1178 53.029 82.7116 53.0291C82.1399 53.0355 81.5691 52.9809 81.0089 52.866C80.5514 52.7755 80.1249 52.569 79.7701 52.2663C79.4557 52.0036 79.2213 51.6579 79.0935 51.2686C78.9712 50.8821 78.91 50.4788 78.9122 50.0734C78.9122 49.9974 78.9173 49.8647 78.9243 49.6733C78.9314 49.4818 78.9578 49.0534 79.0023 48.3929L79.2495 44.4892H77.488C77.5265 43.9706 77.5603 43.2862 77.5893 42.436L77.6238 41.3886H79.4926C79.5372 41.0422 79.5932 40.2862 79.6607 39.1207L81.5924 38.7257C81.9462 38.6582 82.6988 38.4849 83.8502 38.2061C83.7975 39.192 83.76 40.2528 83.7377 41.3886H86.3095C86.2494 42.9512 86.2194 43.9847 86.2194 44.4892H83.6273L83.4906 47.3091C83.4764 47.7305 83.4683 48.0009 83.4683 48.1195C83.4604 48.4247 83.5007 48.7293 83.5878 49.022C83.6195 49.1318 83.6727 49.2342 83.7443 49.3232C83.816 49.4123 83.9046 49.4861 84.0051 49.5406C84.2084 49.6473 84.435 49.7019 84.6645 49.6996C84.8536 49.699 85.0424 49.6858 85.2297 49.6601C85.5796 49.5989 85.9258 49.5188 86.267 49.42Z" fill="#5A189A"/>
<path d="M87.6445 52.7352C87.7614 51.6122 87.8481 50.6911 87.9049 49.9719C88.0102 48.4613 88.1192 46.7056 88.232 44.7048C88.2995 43.3806 88.3509 42.1094 88.386 40.8912C88.4211 39.673 88.4376 38.4889 88.4356 37.3389C89.3905 37.3537 90.167 37.3615 90.7653 37.3622C91.5757 37.3622 92.3421 37.3544 93.0646 37.3389L92.8306 40.0737C92.7928 40.5235 92.7331 41.4368 92.6514 42.8137C92.8396 42.5654 93.0426 42.3286 93.2591 42.1046C93.4216 41.9472 93.5971 41.8039 93.7838 41.6762C93.9694 41.5484 94.1656 41.437 94.3703 41.3429C94.5925 41.2447 94.8225 41.1654 95.0581 41.1059C95.3397 41.0336 95.626 40.9811 95.915 40.9489C96.8562 40.836 97.81 40.8891 98.7329 41.1059C99.2947 41.2312 99.8184 41.4889 100.26 41.8575C100.652 42.1679 100.95 42.58 101.123 43.0487C101.278 43.5164 101.354 44.0065 101.349 44.4992C101.349 44.7017 101.344 44.9702 101.332 45.3044C101.321 45.6407 101.297 46.0621 101.259 46.5746L101.012 50.3761C100.983 50.8491 100.965 51.2431 100.962 51.5541C100.959 51.8651 100.956 52.2631 100.956 52.7321C100.173 52.7179 99.4244 52.7109 98.7106 52.7109C97.9057 52.7109 97.0893 52.7179 96.2614 52.7321C96.389 51.732 96.5008 50.5797 96.5967 49.2751C96.6926 47.9704 96.7412 46.9984 96.7425 46.3589C96.7425 45.6498 96.5946 45.1565 96.2968 44.8709C95.9991 44.5853 95.606 44.4424 95.1178 44.4424C94.7134 44.4344 94.3134 44.5273 93.954 44.7129C93.634 44.8882 93.3626 45.1402 93.1639 45.4462C92.9687 45.7251 92.807 46.1273 92.6787 46.6526C92.5275 47.2921 92.4106 48.2375 92.3282 49.4888C92.2837 50.1803 92.2394 51.2627 92.1956 52.7362C91.4365 52.722 90.7275 52.7149 90.0684 52.7149C89.4094 52.7149 88.6014 52.7217 87.6445 52.7352Z" fill="#5A189A"/>
<path d="M112.775 52.7352C113.149 49.0806 113.373 45.0573 113.447 40.6653L108.646 40.7909L108.703 39.5389C108.732 38.869 108.755 38.1357 108.771 37.3389C110.905 37.3537 113.394 37.3615 116.236 37.3622L119.021 37.35H121.727L123.194 37.3389L123.126 38.4429C123.095 39.0365 123.075 39.5264 123.063 39.9127C123.053 40.3016 123.047 40.5934 123.047 40.7909C121.438 40.7092 120.112 40.6673 119.068 40.6653H118.28C118.167 41.9949 118.08 43.2225 118.019 44.3482C117.936 45.9621 117.871 47.5288 117.825 49.0482C117.779 50.5675 117.757 51.7965 117.757 52.7352C116.525 52.721 115.729 52.7139 115.368 52.7139C115.045 52.7139 114.181 52.721 112.775 52.7352Z" fill="#5A189A"/>
<path d="M135.042 49.329C134.943 49.7808 134.755 50.871 134.478 52.5997C133.605 52.7732 132.872 52.888 132.279 52.9441C131.685 53.0001 131.083 53.0282 130.474 53.0282C129.646 53.0341 128.82 52.9718 128.003 52.8418C127.32 52.7423 126.66 52.5188 126.057 52.1824C125.53 51.8825 125.066 51.4835 124.69 51.0074C124.306 50.5079 124.021 49.9396 123.85 49.333C123.658 48.6854 123.56 48.0132 123.562 47.3376C123.564 46.3679 123.76 45.4084 124.138 44.5156C124.521 43.5959 125.015 42.8767 125.621 42.3581C126.227 41.8383 126.942 41.4607 127.713 41.253C128.503 41.0354 129.318 40.9257 130.137 40.9269C130.964 40.923 131.789 41.0234 132.591 41.2257C133.327 41.4029 134.008 41.7615 134.57 42.269C135.085 42.7278 135.482 43.3043 135.727 43.9494C135.959 44.5971 136.076 45.2809 136.07 45.9692C136.065 46.45 136.016 46.9294 135.924 47.4014L128.017 47.4126C128.008 47.5331 128.005 47.6415 128.005 47.7387C128.005 48.549 128.295 49.1446 128.873 49.5255C129.452 49.9064 130.159 50.0968 130.994 50.0968C131.564 50.0896 132.132 50.0313 132.692 49.9226C133.485 49.7668 134.27 49.5687 135.042 49.329ZM128.104 45.6825H131.827C131.834 45.5539 131.838 45.4455 131.838 45.3543C131.849 45.0089 131.779 44.6657 131.635 44.3515C131.509 44.0881 131.298 43.8743 131.037 43.7438C130.763 43.6143 130.463 43.5498 130.16 43.5554C129.937 43.5552 129.716 43.5915 129.505 43.6627C129.297 43.7323 129.104 43.8394 128.935 43.9788C128.769 44.1149 128.627 44.2771 128.513 44.4589C128.408 44.622 128.324 44.798 128.265 44.9826C128.197 45.2124 128.144 45.4462 128.104 45.6825Z" fill="#5A189A"/>
<path d="M138.606 44.5028C138.749 43.76 138.839 43.2468 138.877 42.9632C138.915 42.6795 138.975 42.2376 139.057 41.6373C141.224 41.1646 143.085 40.9282 144.641 40.9282C145.462 40.9198 146.281 41.02 147.075 41.226C147.813 41.4286 148.387 41.7504 148.797 42.1913C149.208 42.6323 149.415 43.2674 149.418 44.0966C149.418 44.518 149.362 45.4661 149.25 46.9409C149.138 48.4157 149.054 50.3473 149 52.7358C148.262 52.7216 147.529 52.7145 146.799 52.7145C146.092 52.7145 145.339 52.7216 144.541 52.7358C144.644 51.9092 144.758 50.2021 144.883 47.6145C144.598 47.7495 144.374 47.8474 144.214 47.9082C144.052 47.969 143.768 48.0602 143.364 48.1797C142.96 48.2992 142.642 48.4005 142.413 48.4836C142.2 48.5591 141.998 48.6656 141.816 48.7996C141.669 48.9043 141.546 49.0394 141.456 49.1956C141.385 49.3353 141.351 49.4901 141.354 49.6464C141.353 49.7711 141.38 49.8945 141.433 50.0076C141.485 50.1208 141.562 50.2209 141.658 50.3007C141.861 50.48 142.184 50.5712 142.629 50.5712C142.798 50.5702 142.967 50.557 143.135 50.5317C143.388 50.4865 143.637 50.4204 143.879 50.3341C143.661 50.9135 143.401 51.7593 143.101 52.8715C142.493 52.9736 141.878 53.0264 141.262 53.0295C140.329 53.0295 139.552 52.8999 138.932 52.6406C138.327 52.395 137.822 51.9521 137.499 51.3835C137.179 50.8598 137.004 50.2601 136.993 49.6464C136.993 49.292 137.056 48.9404 137.179 48.6081C137.316 48.2469 137.512 47.9111 137.759 47.6145C138.022 47.2915 138.334 47.0119 138.684 46.7859C139.138 46.511 139.624 46.2936 140.132 46.1387C140.895 45.8968 141.673 45.7043 142.461 45.5623C142.851 45.4873 143.211 45.4073 143.538 45.3192C143.777 45.2627 144.01 45.1875 144.237 45.0943C144.363 45.0403 144.477 44.9637 144.575 44.8685C144.655 44.7917 144.718 44.6997 144.762 44.598C144.8 44.5012 144.818 44.3981 144.817 44.2941C144.822 44.1619 144.791 44.0309 144.727 43.9147C144.664 43.7986 144.57 43.7015 144.457 43.6337C144.216 43.4808 143.862 43.4028 143.397 43.4028C142.105 43.4061 140.508 43.7728 138.606 44.5028Z" fill="#5A189A"/>
<path d="M161.144 49.138C161.106 49.4384 161.015 49.9915 160.872 50.7971L160.579 52.6011C159.446 52.8804 158.284 53.0243 157.116 53.0296C156.39 53.0409 155.666 52.9578 154.962 52.7824C154.238 52.5891 153.567 52.2341 153 51.7442C152.422 51.2568 151.976 50.6324 151.702 49.928C151.368 49.0491 151.204 48.115 151.217 47.1749C151.215 46.2556 151.375 45.3431 151.691 44.4796C151.975 43.6632 152.455 42.9292 153.09 42.3423C153.67 41.8023 154.375 41.4146 155.142 41.2139C155.958 41.0151 156.796 40.9188 157.636 40.9273C158.174 40.9274 158.713 40.9551 159.248 41.0103C159.925 41.0918 160.595 41.2146 161.256 41.378L161.278 41.6373C161.301 41.9068 161.318 42.1843 161.33 42.4659C161.342 42.7475 161.365 43.1942 161.403 43.8039L161.471 44.8077C160.395 44.4316 159.444 44.2432 158.616 44.2425C158.076 44.2305 157.54 44.3486 157.054 44.5869C156.624 44.8002 156.275 45.149 156.062 45.5796C155.84 46.05 155.73 46.5656 155.741 47.0858C155.741 47.6638 155.837 48.149 156.028 48.5413C156.222 48.9338 156.547 49.2452 156.948 49.4206C157.383 49.6189 157.857 49.7192 158.335 49.7143C158.64 49.7103 158.945 49.6839 159.246 49.6353C159.595 49.5826 159.9 49.5229 160.158 49.4601C160.492 49.3717 160.822 49.2642 161.144 49.138Z" fill="#5A189A"/>
<path d="M163.151 52.7352C163.272 51.6149 163.359 50.6938 163.411 49.9719C163.517 48.4613 163.626 46.7056 163.74 44.7048C163.807 43.3806 163.858 42.1094 163.893 40.8912C163.927 39.673 163.944 38.4889 163.943 37.3389C164.899 37.3537 165.675 37.3615 166.273 37.3622C167.083 37.3622 167.85 37.3544 168.572 37.3389L168.338 40.0737C168.302 40.5235 168.242 41.4368 168.16 42.8137C168.348 42.5654 168.551 42.3286 168.768 42.1046C169.094 41.7901 169.47 41.5326 169.882 41.3429C170.104 41.2448 170.334 41.1656 170.57 41.1059C170.851 41.0337 171.138 40.9813 171.427 40.9489C172.368 40.8359 173.322 40.889 174.246 41.1059C174.807 41.2314 175.331 41.4891 175.773 41.8575C176.163 42.1695 176.459 42.5826 176.63 43.0517C176.785 43.5195 176.861 44.0096 176.856 44.5022C176.856 44.7048 176.85 44.9732 176.839 45.3075C176.826 45.6438 176.803 46.0651 176.766 46.5777L176.519 50.3791C176.489 50.8522 176.472 51.2462 176.468 51.5572C176.464 51.8681 176.468 52.2662 176.468 52.7352C175.685 52.721 174.936 52.7139 174.221 52.7139C173.417 52.7139 172.601 52.721 171.773 52.7352C171.9 51.7351 172.012 50.5827 172.108 49.2781C172.205 47.9735 172.254 47.0014 172.254 46.3619C172.254 45.6529 172.106 45.1596 171.809 44.8739C171.511 44.5883 171.118 44.4455 170.628 44.4455C170.224 44.4373 169.825 44.5302 169.466 44.7159C169.146 44.8913 168.874 45.1433 168.676 45.4493C168.479 45.7282 168.317 46.1303 168.19 46.6557C168.039 47.2951 167.922 48.2405 167.84 49.4918C167.795 50.1833 167.751 51.2658 167.707 52.7392C166.948 52.725 166.239 52.718 165.58 52.718C164.921 52.718 164.111 52.7237 163.151 52.7352Z" fill="#5A189A"/>
<path d="M190.11 49.3291C190.013 49.7808 189.825 50.871 189.547 52.5998C188.675 52.7733 187.942 52.8881 187.347 52.9441C186.752 53.0002 186.15 53.0282 185.542 53.0282C184.715 53.0341 183.889 52.9718 183.072 52.8418C182.389 52.7425 181.729 52.519 181.126 52.1824C180.597 51.8831 180.132 51.4837 179.756 51.0064C179.372 50.5068 179.087 49.9385 178.915 49.3321C178.723 48.6843 178.626 48.0122 178.627 47.3366C178.629 46.367 178.825 45.4076 179.203 44.5147C179.586 43.5949 180.08 42.8758 180.686 42.3572C181.292 41.8373 182.007 41.4597 182.778 41.2521C183.568 41.0344 184.384 40.9246 185.203 40.9259C186.03 40.9216 186.855 41.0217 187.657 41.2237C188.393 41.4009 189.074 41.7596 189.637 42.267C190.152 42.7261 190.549 43.3025 190.794 43.9474C191.026 44.5951 191.143 45.2789 191.137 45.9672C191.132 46.4481 191.083 46.9275 190.99 47.3995L183.083 47.4106C183.075 47.5311 183.072 47.6395 183.072 47.7367C183.072 48.5471 183.361 49.1427 183.94 49.5235C184.519 49.9044 185.226 50.0948 186.061 50.0948C186.631 50.0876 187.199 50.0293 187.759 49.9206C188.553 49.7656 189.337 49.5681 190.11 49.3291ZM183.173 45.6826H186.896C186.903 45.5539 186.907 45.4455 186.907 45.3544C186.916 45.0084 186.845 44.6651 186.698 44.3516C186.573 44.0879 186.362 43.874 186.101 43.7438C185.828 43.6139 185.529 43.5484 185.227 43.5524C185.004 43.5521 184.783 43.5884 184.572 43.6598C184.364 43.7293 184.171 43.8364 184.002 43.9758C183.836 44.1114 183.693 44.2736 183.58 44.4559C183.474 44.6185 183.39 44.7947 183.331 44.9796C183.264 45.2105 183.212 45.4452 183.173 45.6826Z" fill="#5A189A"/>
<path d="M192.603 52.7354L192.952 47.7285L193.065 44.8509C193.072 44.3322 193.076 43.8035 193.076 43.2616C193.076 42.7197 193.068 42.0319 193.053 41.2196C193.963 41.2344 194.685 41.2422 195.219 41.2429C195.844 41.2429 196.563 41.2351 197.375 41.2196L197.327 42.4938C197.552 42.2326 197.793 41.986 198.049 41.7554C198.248 41.5866 198.463 41.439 198.692 41.3148C198.931 41.1844 199.185 41.0859 199.449 41.022C199.719 40.9571 199.995 40.9251 200.272 40.9268C200.577 40.931 200.88 40.9684 201.176 41.0382C201.183 41.8587 201.202 42.536 201.232 43.0702L201.311 44.8073C200.934 44.6922 200.543 44.6312 200.15 44.626C199.752 44.6168 199.356 44.6838 198.983 44.8235C198.654 44.957 198.358 45.161 198.116 45.4211C197.849 45.71 197.642 46.0496 197.508 46.4199C197.358 46.8189 197.252 47.4507 197.192 48.315C197.132 49.1794 197.102 50.168 197.102 51.2808C197.102 51.6732 197.117 52.158 197.147 52.7354C196.417 52.7212 195.684 52.7141 194.946 52.7141C194.207 52.7141 193.426 52.7212 192.603 52.7354Z" fill="#5A189A"/>
</g>
<defs>
<clipPath id="clip0_823_2202">
<rect width="201.311" height="56" fill="white"/>
</clipPath>
</defs>
</svg>
