<svg width="49" height="48" viewBox="0 0 49 48" fill="none" xmlns="http://www.w3.org/2000/svg">
<g clip-path="url(#clip0_742_5329)">
<path d="M20.0525 40.6954C20.225 40.0654 22.3925 37.3429 20.885 29.8954H28.115C26.5925 37.2979 28.7825 40.1104 28.94 40.6954H20.0525ZM47.255 2.02539H39.845C39.155 2.02539 38.6 2.61789 38.6 3.34539C38.6 4.07289 39.155 4.66539 39.845 4.66539H45.965C45.4925 11.1904 40.79 17.1154 34.67 20.3554C34.055 20.6779 33.8075 21.4729 34.115 22.1254C34.3325 22.5904 34.775 22.8604 35.2325 22.8604C35.42 22.8604 35.6075 22.8154 35.7875 22.7254C43.16 18.8179 48.5 11.3929 48.5 3.35289C48.5 2.61789 47.945 2.02539 47.255 2.02539ZM14.3375 20.3554C8.2175 17.1154 3.5075 11.1904 3.035 4.67289H9.1625C9.8525 4.67289 10.4075 4.08039 10.4075 3.35289C10.4075 2.62539 9.8525 2.02539 9.1625 2.02539H1.745C1.055 2.02539 0.5 2.61789 0.5 3.35289C0.5 11.3929 5.84 18.8179 13.2275 22.7254C13.4075 22.8229 13.595 22.8604 13.7825 22.8604C14.24 22.8604 14.6825 22.5904 14.9 22.1254C15.2 21.4804 14.9525 20.6854 14.3375 20.3554Z" fill="#E9C61C"/>
<path d="M7.64001 0.0898438C7.95501 17.0548 15.38 30.6298 24.5 30.6298C33.62 30.6298 41.045 17.0548 41.36 0.0898438H7.64001Z" fill="#FFD926"/>
<path d="M32.06 40.4404H16.94L15.395 44.2954H33.605L32.06 40.4404Z" fill="#4272B7"/>
<path d="M38.165 47.9097H10.835L13.16 44.0547H35.84L38.165 47.9097Z" fill="#2C64AF"/>
</g>
<defs>
<clipPath id="clip0_742_5329">
<rect width="48" height="48" fill="white" transform="translate(0.5)"/>
</clipPath>
</defs>
</svg>
