<svg width="49" height="48" viewBox="0 0 49 48" fill="none" xmlns="http://www.w3.org/2000/svg">
<path d="M4.66675 28.425V32.6925C4.66799 32.9883 4.75664 33.277 4.92154 33.5226C5.08645 33.7681 5.32025 33.9594 5.59357 34.0724C5.86688 34.1854 6.1675 34.2151 6.45765 34.1577C6.74779 34.1004 7.0145 33.9585 7.22425 33.75L12.4742 28.5H23.4167C24.4113 28.5 25.3651 28.1049 26.0684 27.4016C26.7717 26.6984 27.1667 25.7446 27.1667 24.75V9.75C27.1667 8.75544 26.7717 7.80161 26.0684 7.09835C25.3651 6.39509 24.4113 6 23.4167 6H5.41675C4.42219 6 3.46836 6.39509 2.7651 7.09835C2.06184 7.80161 1.66675 8.75544 1.66675 9.75V24.75C1.66784 25.6142 1.96682 26.4515 2.51329 27.1209C3.05976 27.7904 3.82031 28.2509 4.66675 28.425ZM9.16675 13.875C9.16675 12.8804 9.56184 11.9266 10.2651 11.2233C10.9684 10.5201 11.9222 10.125 12.9167 10.125H15.1667C16.1613 10.125 17.1151 10.5201 17.8184 11.2233C18.5217 11.9266 18.9167 12.8804 18.9167 13.875V20.5725L20.0567 21.9C20.3153 22.2023 20.4432 22.595 20.4123 22.9917C20.3813 23.3883 20.1941 23.7564 19.8917 24.015C19.5894 24.2736 19.1967 24.4015 18.8001 24.3705C18.4034 24.3396 18.0353 24.1523 17.7767 23.85L17.5067 23.535C16.8457 24.0742 16.0198 24.3707 15.1667 24.375H12.9167C11.9222 24.375 10.9684 23.9799 10.2651 23.2766C9.56184 22.5734 9.16675 21.6196 9.16675 20.625V13.875Z" fill="#0466C8"/>
<path d="M42.9167 14.4075H29.0417C28.9423 14.4075 28.8469 14.447 28.7766 14.5173C28.7063 14.5877 28.6667 14.683 28.6667 14.7825V24.75C28.6667 26.1424 28.1136 27.4777 27.1291 28.4623C26.1445 29.4469 24.8091 30 23.4167 30H21.5417C21.4423 30 21.3469 30.0395 21.2766 30.1098C21.2063 30.1802 21.1667 30.2755 21.1667 30.375V33.1575C21.1683 34.1516 21.5639 35.1045 22.2668 35.8074C22.9698 36.5103 23.9227 36.9059 24.9167 36.9075H35.8592L41.1092 42.1575C41.3195 42.3665 41.5868 42.5085 41.8777 42.5656C42.1685 42.6227 42.4698 42.5924 42.7434 42.4784C43.017 42.3645 43.2507 42.172 43.4151 41.9254C43.5794 41.6787 43.667 41.3889 43.6667 41.0925V36.8325C44.5127 36.6574 45.2726 36.1965 45.8189 35.5273C46.3652 34.8581 46.6645 34.0214 46.6667 33.1575V18.1575C46.6667 17.1629 46.2717 16.2091 45.5684 15.5058C44.8651 14.8026 43.9113 14.4075 42.9167 14.4075ZM39.1667 31.125C39.1667 31.5228 39.0087 31.9044 38.7274 32.1857C38.4461 32.467 38.0646 32.625 37.6667 32.625C37.2689 32.625 36.8874 32.467 36.6061 32.1857C36.3248 31.9044 36.1667 31.5228 36.1667 31.125V28.125H32.4167V31.125C32.4167 31.5228 32.2587 31.9044 31.9774 32.1857C31.6961 32.467 31.3146 32.625 30.9167 32.625C30.5189 32.625 30.1374 32.467 29.8561 32.1857C29.5748 31.9044 29.4167 31.5228 29.4167 31.125V23.25C29.4167 21.9571 29.9304 20.7171 30.8446 19.8029C31.7588 18.8886 32.9988 18.375 34.2917 18.375C35.5847 18.375 36.8247 18.8886 37.7389 19.8029C38.6531 20.7171 39.1667 21.9571 39.1667 23.25V31.125ZM17.4167 35.25V37.5C17.4167 37.6989 17.4958 37.8897 17.6364 38.0303C17.7771 38.171 17.9678 38.25 18.1667 38.25C18.3657 38.25 18.5564 38.171 18.6971 38.0303C18.8377 37.8897 18.9167 37.6989 18.9167 37.5V35.25C18.9167 35.0511 18.8377 34.8603 18.6971 34.7197C18.5564 34.579 18.3657 34.5 18.1667 34.5C17.9678 34.5 17.7771 34.579 17.6364 34.7197C17.4958 34.8603 17.4167 35.0511 17.4167 35.25ZM12.9167 31.5C12.7178 31.5 12.5271 31.579 12.3864 31.7197C12.2458 31.8603 12.1667 32.0511 12.1667 32.25C12.1667 32.4489 12.2458 32.6397 12.3864 32.7803C12.5271 32.921 12.7178 33 12.9167 33H15.1667C15.3657 33 15.5564 32.921 15.6971 32.7803C15.8377 32.6397 15.9167 32.4489 15.9167 32.25C15.9167 32.0511 15.8377 31.8603 15.6971 31.7197C15.5564 31.579 15.3657 31.5 15.1667 31.5H12.9167ZM31.6667 9V6.75C31.6667 6.55109 31.5877 6.36032 31.4471 6.21967C31.3064 6.07902 31.1157 6 30.9167 6C30.7178 6 30.5271 6.07902 30.3864 6.21967C30.2458 6.36032 30.1667 6.55109 30.1667 6.75V9C30.1667 9.19891 30.2458 9.38968 30.3864 9.53033C30.5271 9.67098 30.7178 9.75 30.9167 9.75C31.1157 9.75 31.3064 9.67098 31.4471 9.53033C31.5877 9.38968 31.6667 9.19891 31.6667 9ZM36.1667 12.75C36.3657 12.75 36.5564 12.671 36.6971 12.5303C36.8377 12.3897 36.9167 12.1989 36.9167 12C36.9167 11.8011 36.8377 11.6103 36.6971 11.4697C36.5564 11.329 36.3657 11.25 36.1667 11.25H33.9167C33.7178 11.25 33.5271 11.329 33.3864 11.4697C33.2458 11.6103 33.1667 11.8011 33.1667 12C33.1667 12.1989 33.2458 12.3897 33.3864 12.5303C33.5271 12.671 33.7178 12.75 33.9167 12.75H36.1667Z" fill="#0466C8"/>
<path d="M34.2917 21.375C33.7945 21.375 33.3176 21.5725 32.9659 21.9242C32.6143 22.2758 32.4167 22.7527 32.4167 23.25V25.125H36.1667V23.25C36.1667 23.0038 36.1183 22.76 36.024 22.5325C35.9298 22.305 35.7917 22.0983 35.6176 21.9242C35.4435 21.7501 35.2368 21.612 35.0093 21.5177C34.7818 21.4235 34.538 21.375 34.2917 21.375Z" fill="#0466C8"/>
<path d="M15.1667 13.125H12.9167C12.5025 13.125 12.1667 13.4608 12.1667 13.875V20.625C12.1667 21.0392 12.5025 21.375 12.9167 21.375H15.1667C15.581 21.375 15.9167 21.0392 15.9167 20.625V13.875C15.9167 13.4608 15.581 13.125 15.1667 13.125Z" fill="#0466C8"/>
</svg>
