<svg width="382" height="300" viewBox="0 0 382 300" fill="none" xmlns="http://www.w3.org/2000/svg">
<path d="M198.599 248.258C252.866 248.258 296.857 204.267 296.857 150C296.857 95.7331 252.866 51.7412 198.599 51.7412C144.332 51.7412 100.34 95.7331 100.34 150C100.34 204.267 144.332 248.258 198.599 248.258Z" fill="#DBE8EC"/>
<path d="M331.381 129.436V118.824C331.381 116.801 330.577 114.86 329.146 113.43C327.716 111.999 325.775 111.195 323.752 111.195H296.822C294.799 111.195 292.858 110.391 291.428 108.96C289.997 107.53 289.193 105.589 289.193 103.566V92.9545C289.193 90.931 289.997 88.9904 291.428 87.5597C292.858 86.1289 294.799 85.325 296.822 85.325H297.673C299.696 85.325 301.637 84.5212 303.067 83.0904C304.498 81.6597 305.302 79.7191 305.302 77.6956V67.0845C305.302 65.061 304.498 63.1205 303.067 61.6897C301.637 60.2589 299.696 59.4551 297.673 59.4551H102.017C99.9933 59.4551 98.0528 60.2589 96.622 61.6897C95.1912 63.1205 94.3874 65.061 94.3874 67.0845V77.6956C94.3874 79.7191 95.1912 81.6597 96.622 83.0904C98.0528 84.5212 99.9933 85.325 102.017 85.325C104.04 85.325 105.981 86.1289 107.412 87.5597C108.842 88.9904 109.646 90.931 109.646 92.9545V103.566C109.646 105.589 108.842 107.53 107.412 108.96C105.981 110.391 104.04 111.195 102.017 111.195H72.5132C70.4897 111.195 68.5492 111.999 67.1184 113.43C65.6876 114.86 64.8838 116.801 64.8838 118.824V129.436C64.8838 131.459 65.6876 133.4 67.1184 134.83C68.5492 136.261 70.4897 137.065 72.5132 137.065H84.0899C85.0919 137.065 86.084 137.262 87.0096 137.646C87.9352 138.029 88.7763 138.591 89.4848 139.3C90.1932 140.008 90.7552 140.849 91.1386 141.775C91.522 142.7 91.7194 143.692 91.7194 144.694V155.306C91.7194 157.329 90.9156 159.27 89.4848 160.7C88.054 162.131 86.1134 162.935 84.09 162.935H84.062C82.0386 162.935 80.098 163.739 78.6672 165.17C77.2364 166.6 76.4326 168.541 76.4326 170.564V181.176C76.4326 183.199 77.2364 185.14 78.6672 186.57C80.098 188.001 82.0386 188.805 84.062 188.805H85.7369C86.7388 188.805 87.7309 189.002 88.6566 189.386C89.5822 189.769 90.4233 190.331 91.1317 191.04C91.8402 191.748 92.4022 192.589 92.7856 193.515C93.169 194.44 93.3663 195.432 93.3663 196.434V207.046C93.3663 209.069 92.5625 211.01 91.1317 212.44C89.7009 213.871 87.7603 214.675 85.7369 214.675H58.2485C56.2251 214.675 54.2845 215.479 52.8537 216.91C51.423 218.34 50.6191 220.281 50.6191 222.304V232.916C50.6191 234.939 51.423 236.88 52.8538 238.31C54.2845 239.741 56.2251 240.545 58.2485 240.545H301.769C303.792 240.545 305.733 239.741 307.163 238.31C308.594 236.88 309.398 234.939 309.398 232.915V222.304C309.398 220.281 308.594 218.34 307.163 216.91C305.733 215.479 303.792 214.675 301.769 214.675H295.154C293.13 214.675 291.19 213.871 289.759 212.44C288.328 211.01 287.524 209.069 287.524 207.046V196.434C287.524 194.411 288.328 192.47 289.759 191.04C291.19 189.609 293.13 188.805 295.154 188.805H310.751C312.775 188.805 314.715 188.001 316.146 186.57C317.577 185.14 318.381 183.199 318.381 181.176V170.564C318.381 168.541 317.577 166.6 316.146 165.17C314.715 163.739 312.775 162.935 310.751 162.935H306.02C303.996 162.935 302.056 162.131 300.625 160.7C299.194 159.27 298.39 157.329 298.39 155.306V144.694C298.39 142.671 299.194 140.73 300.625 139.3C302.056 137.869 303.996 137.065 306.02 137.065H323.752C325.775 137.065 327.716 136.261 329.146 134.83C330.577 133.4 331.381 131.459 331.381 129.436Z" fill="#DBE8EC"/>
<path d="M226.024 54H244.952" stroke="#B9D4DB" stroke-width="3" stroke-miterlimit="10" stroke-linecap="round"/>
<path d="M226.024 59.4551H244.952" stroke="#B9D4DB" stroke-width="3" stroke-miterlimit="10" stroke-linecap="round"/>
<path d="M226.024 64.9102H244.952" stroke="#B9D4DB" stroke-width="3" stroke-miterlimit="10" stroke-linecap="round"/>
<path d="M70.3868 169.868H89.3143" stroke="#B9D4DB" stroke-width="3" stroke-miterlimit="10" stroke-linecap="round"/>
<path d="M70.3868 175.323H89.3143" stroke="#B9D4DB" stroke-width="3" stroke-miterlimit="10" stroke-linecap="round"/>
<path d="M70.3868 180.778H89.3143" stroke="#B9D4DB" stroke-width="3" stroke-miterlimit="10" stroke-linecap="round"/>
<path d="M296.857 219.864H315.785" stroke="#B9D4DB" stroke-width="3" stroke-miterlimit="10" stroke-linecap="round"/>
<path d="M296.857 225.32H315.785" stroke="#B9D4DB" stroke-width="3" stroke-miterlimit="10" stroke-linecap="round"/>
<path d="M296.857 230.775H315.785" stroke="#B9D4DB" stroke-width="3" stroke-miterlimit="10" stroke-linecap="round"/>
<path d="M320.949 126.653C325.417 126.653 329.039 123.031 329.039 118.563C329.039 114.095 325.417 110.473 320.949 110.473C316.481 110.473 312.859 114.095 312.859 118.563C312.859 123.031 316.481 126.653 320.949 126.653Z" fill="#B9D4DB"/>
<path d="M299.6 128.596C301.917 128.596 303.795 126.718 303.795 124.401C303.795 122.084 301.917 120.206 299.6 120.206C297.283 120.206 295.405 122.084 295.405 124.401C295.405 126.718 297.283 128.596 299.6 128.596Z" fill="#B9D4DB"/>
<path d="M310.252 104.76C313.561 104.76 316.244 102.077 316.244 98.7671C316.244 95.4574 313.561 92.7744 310.252 92.7744C306.942 92.7744 304.259 95.4574 304.259 98.7671C304.259 102.077 306.942 104.76 310.252 104.76Z" fill="#B9D4DB"/>
<path d="M96.8868 237.791C102.203 237.791 106.513 233.481 106.513 228.165C106.513 222.849 102.203 218.539 96.8868 218.539C91.5706 218.539 87.261 222.849 87.261 228.165C87.261 233.481 91.5706 237.791 96.8868 237.791Z" fill="#B9D4DB"/>
<path d="M77.8535 237.981C80.6226 237.981 82.8674 235.736 82.8674 232.967C82.8674 230.198 80.6226 227.953 77.8535 227.953C75.0844 227.953 72.8396 230.198 72.8396 232.967C72.8396 235.736 75.0844 237.981 77.8535 237.981Z" fill="#B9D4DB"/>
<path d="M71.9651 219.216C73.5624 219.216 74.8573 217.921 74.8573 216.324C74.8573 214.727 73.5624 213.432 71.9651 213.432C70.3679 213.432 69.073 214.727 69.073 216.324C69.073 217.921 70.3679 219.216 71.9651 219.216Z" fill="#B9D4DB"/>
<path d="M86.3054 215.849C90.1344 215.849 93.2385 212.745 93.2385 208.916C93.2385 205.086 90.1344 201.982 86.3054 201.982C82.4763 201.982 79.3722 205.086 79.3722 208.916C79.3722 212.745 82.4763 215.849 86.3054 215.849Z" fill="#B9D4DB"/>
<path d="M147.306 88.9986C152.623 88.9986 156.932 84.689 156.932 79.3728C156.932 74.0567 152.623 69.7471 147.306 69.7471C141.99 69.7471 137.681 74.0567 137.681 79.3728C137.681 84.689 141.99 88.9986 147.306 88.9986Z" fill="#B9D4DB"/>
<path d="M147.697 64.7602C150.466 64.7602 152.711 62.5154 152.711 59.7463C152.711 56.9772 150.466 54.7324 147.697 54.7324C144.928 54.7324 142.683 56.9772 142.683 59.7463C142.683 62.5154 144.928 64.7602 147.697 64.7602Z" fill="#B9D4DB"/>
<path d="M181.092 67.016C183.489 67.016 185.432 65.0731 185.432 62.6764C185.432 60.2798 183.489 58.3369 181.092 58.3369C178.696 58.3369 176.753 60.2798 176.753 62.6764C176.753 65.0731 178.696 67.016 181.092 67.016Z" fill="#B9D4DB"/>
<path d="M165.305 61.3517C166.902 61.3517 168.197 60.0568 168.197 58.4595C168.197 56.8622 166.902 55.5674 165.305 55.5674C163.708 55.5674 162.413 56.8622 162.413 58.4595C162.413 60.0568 163.708 61.3517 165.305 61.3517Z" fill="#B9D4DB"/>
<path d="M168.666 81.1788C172.495 81.1788 175.599 78.0747 175.599 74.2457C175.599 70.4166 172.495 67.3125 168.666 67.3125C164.837 67.3125 161.733 70.4166 161.733 74.2457C161.733 78.0747 164.837 81.1788 168.666 81.1788Z" fill="#B9D4DB"/>
<path d="M284.142 170.837L220.152 205.305V127.119L284.142 107.142V170.837Z" fill="#E06714"/>
<path d="M220.152 127.119L144.613 119.477L129.131 96.6366C128.952 96.3723 128.848 96.0642 128.831 95.7454C128.814 95.4265 128.884 95.109 129.033 94.8269C129.183 94.5448 129.406 94.3088 129.68 94.1442C129.954 93.9796 130.267 93.8926 130.586 93.8926H201.745C202.067 93.8926 202.382 93.9806 202.656 94.1471C202.931 94.3137 203.155 94.5523 203.304 94.8371L220.152 127.119Z" fill="#F9AE2B"/>
<path d="M144.613 197.664L118.231 192.174C117.836 192.092 117.481 191.876 117.226 191.563C116.971 191.249 116.832 190.858 116.832 190.453V115.857C116.832 115.596 116.89 115.338 117.002 115.102C117.114 114.866 117.278 114.659 117.48 114.494C117.683 114.329 117.92 114.211 118.174 114.15C118.427 114.088 118.692 114.083 118.948 114.136L144.613 119.477V197.664Z" fill="#F9AE2B"/>
<path d="M245.62 213.785L220.152 205.306V127.119L246.731 135.968C247.081 136.084 247.385 136.308 247.601 136.607C247.817 136.907 247.933 137.266 247.933 137.635V212.117C247.933 212.395 247.867 212.67 247.74 212.918C247.613 213.166 247.429 213.38 247.204 213.543C246.978 213.706 246.716 213.813 246.441 213.855C246.166 213.897 245.884 213.873 245.62 213.785Z" fill="#F9AE2B"/>
<path d="M220.152 205.305L144.613 197.663V119.477L220.152 127.118V205.305Z" fill="#409CB5"/>
<path d="M200.943 226.226L123.867 223.15L144.613 197.664L220.152 205.306L202.335 225.628C202.162 225.825 201.948 225.981 201.707 226.084C201.466 226.188 201.205 226.236 200.943 226.226Z" fill="#F9AE2B"/>
<path d="M220.152 127.118L284.142 107.141L205.926 99.8604L220.152 127.118Z" fill="#EE781D"/>
<path d="M144.613 197.663L220.152 162.391V127.118L144.613 119.477V197.663Z" fill="#25788E"/>
<path d="M149.142 172.185C149.142 172.185 157.395 168.575 159.587 171.154C161.779 173.732 166.679 174.893 166.679 174.893L170.934 167.672L182.54 173.088L188.858 181.727L184.732 191.914C184.732 191.914 176.35 191.785 172.353 193.462C168.355 195.138 157.911 195.267 157.911 195.267L153.139 186.112C153.139 186.112 147.079 177.214 149.142 172.185Z" fill="#DBE8EC"/>
<path d="M166.679 174.893C167.473 175.596 168.235 176.326 168.982 177.068C169.736 177.804 170.461 178.565 171.189 179.323C171.902 180.094 172.633 180.849 173.324 181.638C174.021 182.422 174.73 183.196 175.404 184L173.918 184.734C173.581 183.332 173.249 181.93 172.951 180.519C172.647 179.11 172.386 177.69 172.113 176.274C171.617 173.43 171.154 170.579 170.934 167.672C171.987 170.39 172.796 173.163 173.571 175.944C173.934 177.34 174.31 178.734 174.641 180.137C174.979 181.538 175.282 182.948 175.581 184.358L175.584 184.371C175.623 184.557 175.599 184.751 175.516 184.922C175.432 185.093 175.294 185.231 175.123 185.314C174.951 185.397 174.757 185.42 174.571 185.38C174.385 185.34 174.218 185.239 174.096 185.093C173.424 184.288 172.789 183.453 172.14 182.628C171.486 181.808 170.873 180.954 170.24 180.117C169.623 179.266 169.003 178.417 168.411 177.545C167.813 176.678 167.231 175.799 166.679 174.893Z" fill="#BAD5DB"/>
<path d="M182.54 173.088C182.048 174.149 181.494 175.169 180.942 176.19C180.375 177.201 179.805 178.21 179.204 179.197C178.619 180.196 177.991 181.165 177.378 182.145C176.76 183.121 176.107 184.073 175.474 185.039L174.578 183.688C175.753 183.447 176.932 183.228 178.113 183.019C179.298 182.834 180.477 182.613 181.668 182.457C182.856 182.281 184.05 182.137 185.245 182.002C186.445 181.889 187.643 181.766 188.858 181.728C187.722 182.158 186.569 182.506 185.417 182.862C184.262 183.198 183.104 183.524 181.94 183.817C180.78 184.131 179.607 184.38 178.441 184.665C177.271 184.925 176.098 185.176 174.921 185.405L174.903 185.409C174.733 185.442 174.556 185.423 174.397 185.355C174.237 185.287 174.102 185.173 174.007 185.028C173.913 184.882 173.864 184.712 173.868 184.538C173.871 184.365 173.926 184.196 174.026 184.054C174.691 183.11 175.336 182.153 176.017 181.219C176.702 180.289 177.372 179.348 178.086 178.437C178.783 177.515 179.511 176.614 180.243 175.715C180.989 174.826 181.734 173.936 182.54 173.088Z" fill="#BAD5DB"/>
<path d="M184.732 191.915C183.78 191.464 182.879 190.943 181.974 190.429C181.08 189.899 180.194 189.358 179.326 188.793C177.579 187.677 175.889 186.486 174.23 185.252L175.499 185.001C174.496 186.636 173.456 188.248 172.341 189.815C171.795 190.606 171.216 191.376 170.634 192.144C170.038 192.905 169.443 193.665 168.786 194.388C169.123 193.471 169.521 192.591 169.919 191.711C170.332 190.84 170.746 189.97 171.194 189.12C172.067 187.406 173.016 185.739 174.001 184.093C174.059 183.995 174.137 183.909 174.229 183.841C174.321 183.773 174.425 183.723 174.536 183.695C174.647 183.667 174.763 183.662 174.876 183.678C174.989 183.695 175.098 183.734 175.196 183.793L175.263 183.837L175.27 183.842C176.938 185.064 178.575 186.329 180.156 187.669C180.951 188.332 181.729 189.019 182.499 189.717C183.257 190.431 184.02 191.138 184.732 191.915Z" fill="#BAD5DB"/>
<path d="M149.142 172.186C153.597 173.858 157.942 175.758 162.272 177.691C164.427 178.678 166.586 179.655 168.721 180.683C170.868 181.687 172.994 182.733 175.12 183.781L175.126 183.784C175.261 183.851 175.377 183.952 175.46 184.078C175.543 184.204 175.591 184.35 175.599 184.501C175.607 184.651 175.575 184.802 175.506 184.936C175.437 185.07 175.334 185.183 175.207 185.264C173.803 186.157 172.37 187.004 170.952 187.874C169.536 188.748 168.09 189.573 166.66 190.425C165.216 191.255 163.779 192.095 162.318 192.898C160.864 193.711 159.395 194.501 157.911 195.268C159.232 194.245 160.569 193.248 161.923 192.277C163.269 191.293 164.638 190.346 166.001 189.389C167.377 188.455 168.737 187.493 170.128 186.58C171.516 185.663 172.89 184.723 174.293 183.829L174.38 185.313C172.238 184.3 170.096 183.286 167.974 182.23C165.842 181.198 163.733 180.115 161.62 179.041C157.414 176.854 153.223 174.633 149.142 172.186Z" fill="#BAD5DB"/>
<path d="M152.613 185.288C154.119 184.719 155.568 184.008 156.939 183.164C158.216 182.411 159.28 181.344 160.029 180.065C160.678 178.755 160.912 177.279 160.699 175.833C160.48 174.241 160.108 172.673 159.587 171.153C160.745 172.412 161.591 173.925 162.056 175.571C162.588 177.34 162.417 179.246 161.579 180.892C160.675 182.47 159.268 183.699 157.582 184.382C156.018 185.063 154.317 185.373 152.613 185.288Z" fill="#BAD5DB"/>
<path d="M165.792 180.223C165.697 181.424 165.49 182.614 165.174 183.778C164.874 184.922 164.512 186.05 164.09 187.155C163.671 188.262 163.192 189.344 162.654 190.398C162.116 191.477 161.477 192.502 160.747 193.462C160.84 192.26 161.046 191.069 161.362 189.906C161.662 188.761 162.025 187.634 162.448 186.529C162.869 185.423 163.35 184.341 163.887 183.287C164.426 182.209 165.064 181.183 165.792 180.223Z" fill="#BAD5DB"/>
<path d="M148.714 214.696C148.714 214.696 142.427 221.147 139.425 219.583C136.424 218.019 131.447 218.788 131.447 218.788L130.223 227.08L117.432 226.431L108.326 220.805L108.315 209.814C108.315 209.814 116.129 206.779 119.201 203.721C122.273 200.663 131.902 196.612 131.902 196.612L139.768 203.298C139.768 203.298 148.732 209.26 148.714 214.696Z" fill="#C0D8DD"/>
<path d="M131.447 218.788C129.498 217.986 127.594 217.101 125.698 216.2C124.756 215.738 123.806 215.291 122.873 214.813C121.937 214.34 120.996 213.876 120.069 213.385L120.803 212.558C122.48 214.904 124.1 217.289 125.688 219.697C127.258 222.118 128.809 224.551 130.223 227.08C128.341 224.877 126.597 222.578 124.871 220.266C123.164 217.941 121.488 215.594 119.87 213.208L119.866 213.202C119.794 213.097 119.76 212.971 119.769 212.844C119.778 212.717 119.828 212.597 119.913 212.503C119.998 212.408 120.112 212.345 120.237 212.323C120.362 212.301 120.491 212.321 120.603 212.381C121.528 212.874 122.439 213.394 123.355 213.905C124.274 214.411 125.175 214.949 126.085 215.471C127.893 216.539 129.692 217.622 131.447 218.788Z" fill="#9FC6CC"/>
<path d="M117.432 226.431C117.683 224.123 118.045 221.839 118.444 219.563C118.836 217.285 119.293 215.022 119.765 212.761L120.657 213.37L117.642 215.331C116.622 215.963 115.616 216.615 114.586 217.23C113.563 217.857 112.528 218.466 111.49 219.069C110.444 219.66 109.401 220.257 108.326 220.806C109.254 220.034 110.212 219.31 111.168 218.581C112.131 217.864 113.098 217.152 114.077 216.458C115.048 215.754 116.043 215.085 117.026 214.397L120.015 212.396C120.111 212.332 120.225 212.297 120.341 212.298C120.457 212.298 120.571 212.334 120.667 212.399C120.763 212.465 120.837 212.558 120.88 212.666C120.922 212.774 120.932 212.892 120.907 213.006C120.411 215.261 119.9 217.513 119.325 219.752C118.755 221.991 118.149 224.223 117.432 226.431Z" fill="#9FC6CC"/>
<path d="M108.315 209.814C109.35 209.939 110.371 210.12 111.393 210.296C112.412 210.484 113.429 210.681 114.441 210.897C116.466 211.322 118.477 211.805 120.48 212.319L119.761 212.791C119.926 211.846 120.072 210.898 120.253 209.956C120.431 209.013 120.603 208.07 120.805 207.131C121.195 205.251 121.621 203.377 122.157 201.521C122.086 203.451 121.905 205.365 121.688 207.272C121.587 208.227 121.455 209.177 121.33 210.128C121.207 211.08 121.049 212.026 120.911 212.975C120.889 213.126 120.808 213.262 120.686 213.353C120.563 213.444 120.41 213.483 120.259 213.461L120.201 213.449L120.192 213.447C118.188 212.938 116.192 212.398 114.21 211.8C113.219 211.505 112.232 211.19 111.247 210.867C110.266 210.531 109.283 210.201 108.315 209.814Z" fill="#9FC6CC"/>
<path d="M148.714 214.696C146.34 214.689 143.969 214.622 141.599 214.563C139.229 214.493 136.861 214.392 134.493 214.288C129.759 214.061 125.028 213.781 120.3 213.449L120.296 213.449C120.195 213.441 120.099 213.408 120.016 213.351C119.933 213.294 119.866 213.216 119.823 213.125C119.78 213.034 119.762 212.933 119.771 212.833C119.78 212.733 119.816 212.636 119.874 212.554C120.838 211.199 121.832 209.864 122.811 208.519C123.787 207.172 124.795 205.847 125.785 204.511C126.792 203.185 127.785 201.85 128.814 200.54C129.84 199.229 130.849 197.905 131.902 196.612C131.026 198.031 130.108 199.419 129.207 200.82C128.308 202.222 127.374 203.599 126.452 204.985C125.515 206.36 124.595 207.747 123.644 209.112C122.696 210.478 121.762 211.855 120.798 213.211L120.372 212.317C125.104 212.584 129.832 212.909 134.557 213.291C136.919 213.489 139.28 213.69 141.64 213.923C143.999 214.165 146.358 214.401 148.714 214.696Z" fill="#9FC6CC"/>
<path d="M140.566 203.863C139.309 204.879 138.173 206.035 137.179 207.309C136.211 208.505 135.586 209.941 135.37 211.463C135.288 212.206 135.35 212.958 135.55 213.678C135.743 214.422 136.042 215.135 136.438 215.794C137.284 217.169 138.286 218.44 139.425 219.583C137.955 218.765 136.675 217.643 135.671 216.292C134.584 214.882 134.061 213.116 134.205 211.341C134.447 209.597 135.246 207.977 136.481 206.723C137.628 205.495 139.02 204.521 140.566 203.863Z" fill="#9FC6CC"/>
<path d="M130.263 213.517C130.009 212.353 129.831 211.173 129.73 209.986C129.619 208.807 129.547 207.628 129.523 206.448C129.494 205.267 129.515 204.086 129.574 202.904C129.622 201.713 129.749 200.527 129.954 199.353C130.209 200.517 130.388 201.696 130.488 202.884C130.599 204.062 130.671 205.241 130.694 206.422C130.72 207.602 130.701 208.784 130.641 209.966C130.592 211.156 130.466 212.343 130.263 213.517Z" fill="#9FC6CC"/>
</svg>
